<svg width="16" height="18" viewBox="0 0 16 18" fill="none" xmlns="http://www.w3.org/2000/svg">
<path id="Delete" fill-rule="evenodd" clip-rule="evenodd" d="M15.0451 3.32552C15.3693 3.32552 15.6392 3.59468 15.6392 3.93718V4.25384C15.6392 4.58801 15.3693 4.8655 15.0451 4.8655H1.23404C0.909043 4.8655 0.63916 4.58801 0.63916 4.25384V3.93718C0.63916 3.59468 0.909043 3.32552 1.23404 3.32552H3.6638C4.15737 3.32552 4.58691 2.97469 4.69795 2.47969L4.82519 1.91137C5.02294 1.13721 5.67374 0.623047 6.41855 0.623047H9.85977C10.5965 0.623047 11.2546 1.13721 11.445 1.87053L11.5812 2.47886C11.6914 2.97469 12.121 3.32552 12.6153 3.32552H15.0451ZM13.8107 14.9014C14.0644 12.5372 14.5085 6.92064 14.5085 6.86397C14.5247 6.69231 14.4688 6.52981 14.3577 6.39898C14.2386 6.27648 14.0879 6.20398 13.9217 6.20398H2.36293C2.19598 6.20398 2.03713 6.27648 1.9269 6.39898C1.81506 6.52981 1.75995 6.69231 1.76805 6.86397C1.76954 6.87438 1.78548 7.07222 1.81212 7.40298C1.93048 8.87234 2.26014 12.9648 2.47315 14.9014C2.6239 16.328 3.55998 17.2247 4.91588 17.2572C5.96218 17.2814 7.0401 17.2897 8.14232 17.2897C9.18052 17.2897 10.2349 17.2814 11.3137 17.2572C12.7166 17.233 13.6518 16.3522 13.8107 14.9014Z" fill="#0C2454"/>
</svg>
