<svg width="16" height="16" viewBox="0 0 16 16" fill="none" xmlns="http://www.w3.org/2000/svg">
<path id="Edit" fill-rule="evenodd" clip-rule="evenodd" d="M5.46269 14.6464L12.7848 5.17739C13.1827 4.66676 13.3242 4.07641 13.1916 3.4753C13.0766 2.92884 12.7406 2.40925 12.2365 2.01509L11.0073 1.03862C9.93732 0.18758 8.61085 0.277163 7.85034 1.25363L7.02792 2.32057C6.92181 2.45405 6.94834 2.65113 7.08098 2.75863C7.08098 2.75863 9.15912 4.42489 9.20334 4.46072C9.34483 4.5951 9.45094 4.77426 9.47747 4.98926C9.52169 5.41031 9.22987 5.80448 8.79655 5.85823C8.59316 5.8851 8.39861 5.82239 8.25712 5.70593L6.07286 3.96801C5.96675 3.88828 5.80757 3.9053 5.71914 4.0128L0.528215 10.7316C0.192175 11.1526 0.0772144 11.6991 0.192175 12.2276L0.855411 15.1033C0.890783 15.2556 1.02343 15.3631 1.18261 15.3631L4.10084 15.3272C4.63143 15.3183 5.12665 15.0764 5.46269 14.6464ZM9.54841 13.75H14.3069C14.7712 13.75 15.1488 14.1325 15.1488 14.6028C15.1488 15.074 14.7712 15.4557 14.3069 15.4557H9.54841C9.08414 15.4557 8.70654 15.074 8.70654 14.6028C8.70654 14.1325 9.08414 13.75 9.54841 13.75Z" fill="#0C2454"/>
</svg>
