<svg width="14" height="14" viewBox="0 0 14 14" fill="none" xmlns="http://www.w3.org/2000/svg">
<g id="Search" opacity="0.5">
<path fill-rule="evenodd" clip-rule="evenodd" d="M1 6.20196C1 3.32899 3.3042 1 6.14658 1C7.51154 1 8.8206 1.54806 9.78577 2.52362C10.7509 3.49917 11.2932 4.82231 11.2932 6.20196C11.2932 9.07492 8.98896 11.4039 6.14658 11.4039C3.3042 11.4039 1 9.07492 1 6.20196ZM11.208 10.3921L12.7408 11.6293H12.7674C13.0775 11.9428 13.0775 12.451 12.7674 12.7644C12.4573 13.0779 11.9545 13.0779 11.6444 12.7644L10.3724 11.3066C10.2522 11.1855 10.1846 11.0209 10.1846 10.8493C10.1846 10.6777 10.2522 10.5132 10.3724 10.3921C10.6043 10.1617 10.9761 10.1617 11.208 10.3921Z" fill="#030229"/>
<path d="M9.78577 2.52362L9.43033 2.87527V2.87527L9.78577 2.52362ZM12.7408 11.6293L12.4267 12.0184L12.5642 12.1293H12.7408V11.6293ZM11.208 10.3921L10.8557 10.7468L10.8739 10.765L10.894 10.7811L11.208 10.3921ZM12.7674 11.6293L13.1229 11.2777L12.9761 11.1293H12.7674V11.6293ZM12.7674 12.7644L12.412 12.4128V12.4128L12.7674 12.7644ZM11.6444 12.7644L11.2677 13.0931L11.278 13.1049L11.289 13.1161L11.6444 12.7644ZM10.3724 11.3066L10.7492 10.9779L10.7386 10.9657L10.7272 10.9543L10.3724 11.3066ZM10.3724 10.3921L10.0201 10.0373L10.0176 10.0398L10.3724 10.3921ZM6.14658 0.5C3.02303 0.5 0.5 3.05791 0.5 6.20196H1.5C1.5 3.60008 3.58538 1.5 6.14658 1.5V0.5ZM10.1412 2.17196C9.08269 1.10205 7.64589 0.5 6.14658 0.5V1.5C7.3772 1.5 8.5585 1.99407 9.43033 2.87527L10.1412 2.17196ZM11.7932 6.20196C11.7932 4.69142 11.1995 3.24169 10.1412 2.17196L9.43033 2.87527C10.3023 3.75666 10.7932 4.9532 10.7932 6.20196H11.7932ZM6.14658 11.9039C9.27014 11.9039 11.7932 9.346 11.7932 6.20196H10.7932C10.7932 8.80383 8.70779 10.9039 6.14658 10.9039V11.9039ZM0.5 6.20196C0.5 9.346 3.02303 11.9039 6.14658 11.9039V10.9039C3.58538 10.9039 1.5 8.80383 1.5 6.20196H0.5ZM13.0549 11.2403L11.5221 10.003L10.894 10.7811L12.4267 12.0184L13.0549 11.2403ZM12.7674 11.1293H12.7408V12.1293H12.7674V11.1293ZM13.1229 13.1161C13.6257 12.6078 13.6257 11.7859 13.1229 11.2777L12.412 11.981C12.5293 12.0996 12.5293 12.2941 12.412 12.4128L13.1229 13.1161ZM11.289 13.1161C11.7948 13.6273 12.6171 13.6273 13.1229 13.1161L12.412 12.4128C12.2976 12.5284 12.1143 12.5284 11.9999 12.4128L11.289 13.1161ZM9.99567 11.6353L11.2677 13.0931L12.0212 12.4357L10.7492 10.9779L9.99567 11.6353ZM9.68457 10.8493C9.68457 11.1521 9.80379 11.4435 10.0176 11.6588L10.7272 10.9543C10.7005 10.9274 10.6846 10.8897 10.6846 10.8493H9.68457ZM10.0176 10.0398C9.80379 10.2551 9.68457 10.5465 9.68457 10.8493H10.6846C10.6846 10.8089 10.7005 10.7712 10.7272 10.7443L10.0176 10.0398ZM11.5604 10.0373C11.1335 9.61331 10.447 9.61331 10.0201 10.0373L10.7248 10.7468C10.7617 10.7101 10.8187 10.7101 10.8557 10.7468L11.5604 10.0373Z" fill="black" fill-opacity="0.1"/>
</g>
</svg>
