<svg width="10" height="10" viewBox="0 0 10 10" fill="none" xmlns="http://www.w3.org/2000/svg">
<path id="Vector" d="M9.38015 4.49999H5.43066V0.499968C5.43066 0.224029 5.20946 0 4.93691 0C4.66445 0 4.44325 0.224029 4.44325 0.499968V4.49999H0.493664C0.221204 4.49999 0 4.72402 0 4.99995C0 5.27599 0.221204 5.50001 0.493664 5.50001H4.44325V9.49994C4.44325 9.77597 4.66445 10 4.93691 10C5.20946 10 5.43066 9.77597 5.43066 9.49994V5.50001H9.38015C9.65271 5.50001 9.87391 5.27599 9.87391 4.99995C9.87391 4.72402 9.65271 4.49999 9.38015 4.49999Z" fill="white"/>
</svg>
