<svg width="5" height="6" viewBox="0 0 5 6" fill="none" xmlns="http://www.w3.org/2000/svg">
<g id="Arrow - Down 2" opacity="0.7">
<path id="Arrow - Down 2_2" d="M1.79021 5.31539C1.76888 5.28714 1.6777 5.18047 1.60269 5.0811C1.13097 4.49854 0.358851 2.97881 0.123171 2.18339C0.0853005 2.06259 0.00514745 1.75718 0 1.59401C0 1.43765 0.0264726 1.2886 0.0801531 1.14637C0.155159 0.96907 0.273182 0.826839 0.412531 0.748904C0.509229 0.698734 0.79859 0.620799 0.803737 0.620799C1.1203 0.542864 1.63468 0.5 2.20311 0.5C2.74469 0.5 3.23811 0.542864 3.55946 0.606673C3.56461 0.61398 3.92419 0.691914 4.04736 0.777155C4.27238 0.933512 4.4121 1.23892 4.4121 1.56576V1.59401C4.40658 1.80687 4.26686 2.25451 4.26172 2.25451C4.02567 3.00706 3.29142 4.49172 2.80352 5.08841C2.80352 5.08841 2.67814 5.25645 2.59983 5.32952C2.48732 5.4435 2.34797 5.5 2.20862 5.5C2.0531 5.5 1.90823 5.43619 1.79021 5.31539Z" fill="#030229"/>
</g>
</svg>
