<svg width="7" height="6" viewBox="0 0 7 6" fill="none" xmlns="http://www.w3.org/2000/svg">
<g id="Arrow - Down 4" opacity="0.7">
<path id="Arrow - Down 2" d="M3.38255 5.31539C3.35313 5.28714 3.22732 5.18047 3.12384 5.0811C2.47299 4.49854 1.4077 2.97881 1.08254 2.18339C1.03029 2.06259 0.9197 1.75718 0.912598 1.59401C0.912598 1.43765 0.949122 1.2886 1.02318 1.14637C1.12667 0.96907 1.28951 0.826839 1.48177 0.748904C1.61518 0.698734 2.01441 0.620799 2.02151 0.620799C2.45828 0.542864 3.16797 0.5 3.95223 0.5C4.69945 0.5 5.38022 0.542864 5.82359 0.606673C5.83069 0.61398 6.32681 0.691914 6.49675 0.777155C6.80721 0.933512 6.99997 1.23892 6.99997 1.56576V1.59401C6.99236 1.80687 6.7996 2.25451 6.79249 2.25451C6.46682 3.00706 5.45378 4.49172 4.78062 5.08841C4.78062 5.08841 4.60763 5.25645 4.49958 5.32952C4.34435 5.4435 4.1521 5.5 3.95984 5.5C3.74526 5.5 3.54539 5.43619 3.38255 5.31539Z" fill="#030229"/>
</g>
</svg>
