<svg width="16" height="18" viewBox="0 0 16 18" fill="none" xmlns="http://www.w3.org/2000/svg">
<path id="Delete" fill-rule="evenodd" clip-rule="evenodd" d="M14.4875 3.13997C14.8117 3.13997 15.0815 3.40914 15.0815 3.75163V4.0683C15.0815 4.40246 14.8117 4.67996 14.4875 4.67996H0.676421C0.351426 4.67996 0.081543 4.40246 0.081543 4.0683V3.75163C0.081543 3.40914 0.351426 3.13997 0.676421 3.13997H3.10618C3.59975 3.13997 4.0293 2.78914 4.14033 2.29415L4.26757 1.72582C4.46532 0.951661 5.11612 0.4375 5.86094 0.4375H9.30215C10.0389 0.4375 10.697 0.951662 10.8874 1.68499L11.0236 2.29331C11.1338 2.78914 11.5633 3.13997 12.0577 3.13997H14.4875ZM13.2531 14.7158C13.5067 12.3517 13.9509 6.73509 13.9509 6.67842C13.9671 6.50676 13.9112 6.34426 13.8001 6.21343C13.681 6.09093 13.5302 6.01843 13.3641 6.01843H1.80531C1.63836 6.01843 1.47951 6.09093 1.36929 6.21343C1.25744 6.34426 1.20233 6.50676 1.21044 6.67842C1.21192 6.68884 1.22786 6.88668 1.2545 7.21743C1.37286 8.6868 1.70252 12.7793 1.91554 14.7158C2.06628 16.1425 3.00236 17.0392 4.35826 17.0717C5.40457 17.0958 6.48248 17.1042 7.58471 17.1042C8.62291 17.1042 9.67731 17.0958 10.756 17.0717C12.1589 17.0475 13.0942 16.1667 13.2531 14.7158Z" fill="#0C2454"/>
</svg>
