<svg width="16" height="16" viewBox="0 0 16 16" fill="none" xmlns="http://www.w3.org/2000/svg">
<path id="Edit" fill-rule="evenodd" clip-rule="evenodd" d="M6.14726 14.4618L13.4694 4.99282C13.8673 4.48219 14.0088 3.89184 13.8762 3.29073C13.7612 2.74427 13.4252 2.22468 12.9211 1.83052L11.6919 0.854054C10.6219 0.00300947 9.29542 0.0925931 8.53491 1.06906L7.71249 2.136C7.60638 2.26948 7.63291 2.46656 7.76555 2.57406C7.76555 2.57406 9.84369 4.24032 9.88791 4.27615C10.0294 4.41053 10.1355 4.58969 10.162 4.80469C10.2063 5.22574 9.91444 5.6199 9.48112 5.67366C9.27773 5.70053 9.08318 5.63782 8.94169 5.52136L6.75743 3.78344C6.65132 3.70371 6.49214 3.72073 6.40371 3.82823L1.21278 10.547C0.876746 10.968 0.761785 11.5145 0.876746 12.0431L1.53998 14.9187C1.57535 15.071 1.708 15.1785 1.86718 15.1785L4.78541 15.1426C5.316 15.1337 5.81122 14.8918 6.14726 14.4618ZM10.233 13.5654H14.9915C15.4557 13.5654 15.8333 13.948 15.8333 14.4183C15.8333 14.8895 15.4557 15.2711 14.9915 15.2711H10.233C9.76871 15.2711 9.39111 14.8895 9.39111 14.4183C9.39111 13.948 9.76871 13.5654 10.233 13.5654Z" fill="#0C2454"/>
</svg>
