<svg width="20" height="21" viewBox="0 0 20 21" fill="none" xmlns="http://www.w3.org/2000/svg">
<g id="Category">
<path d="M2.54 0.305664H5.92C7.33 0.305664 8.46 1.45566 8.46 2.86666V6.27566C8.46 7.69566 7.33 8.83566 5.92 8.83566H2.54C1.14 8.83566 0 7.69566 0 6.27566V2.86666C0 1.45566 1.14 0.305664 2.54 0.305664Z" fill="#34D3A3"/>
<path d="M2.54 11.7754H5.92C7.33 11.7754 8.46 12.9164 8.46 14.3364V17.7454C8.46 19.1554 7.33 20.3054 5.92 20.3054H2.54C1.14 20.3054 0 19.1554 0 17.7454V14.3364C0 12.9164 1.14 11.7754 2.54 11.7754Z" fill="#34D3A3"/>
<path d="M17.4601 0.305664H14.0801C12.6701 0.305664 11.5401 1.45566 11.5401 2.86666V6.27566C11.5401 7.69566 12.6701 8.83566 14.0801 8.83566H17.4601C18.8601 8.83566 20.0001 7.69566 20.0001 6.27566V2.86666C20.0001 1.45566 18.8601 0.305664 17.4601 0.305664Z" fill="#34D3A3"/>
<path d="M14.0801 11.7754H17.4601C18.8601 11.7754 20.0001 12.9164 20.0001 14.3364V17.7454C20.0001 19.1554 18.8601 20.3054 17.4601 20.3054H14.0801C12.6701 20.3054 11.5401 19.1554 11.5401 17.7454V14.3364C11.5401 12.9164 12.6701 11.7754 14.0801 11.7754Z" fill="#34D3A3"/>
</g>
</svg>
