<svg width="24" height="25" viewBox="0 0 24 25" fill="none" xmlns="http://www.w3.org/2000/svg">
<g id="Iconly/Bold/Document" opacity="0.4">
<g id="Document">
<path id="Document_2" fill-rule="evenodd" clip-rule="evenodd" d="M7.81 2.1543H16.191C19.28 2.1543 21 3.9343 21 6.9843V17.3143C21 20.4143 19.28 22.1543 16.191 22.1543H7.81C4.77 22.1543 3 20.4143 3 17.3143V6.9843C3 3.9343 4.77 2.1543 7.81 2.1543ZM8.08 6.8143V6.8043H11.069C11.5 6.8043 11.85 7.1543 11.85 7.5833C11.85 8.0243 11.5 8.3743 11.069 8.3743H8.08C7.649 8.3743 7.3 8.0243 7.3 7.5943C7.3 7.1643 7.649 6.8143 8.08 6.8143ZM8.08 12.8943H15.92C16.35 12.8943 16.7 12.5443 16.7 12.1143C16.7 11.6843 16.35 11.3333 15.92 11.3333H8.08C7.649 11.3333 7.3 11.6843 7.3 12.1143C7.3 12.5443 7.649 12.8943 8.08 12.8943ZM8.08 17.4643H15.92C16.319 17.4243 16.62 17.0833 16.62 16.6843C16.62 16.2743 16.319 15.9343 15.92 15.8943H8.08C7.78 15.8643 7.49 16.0043 7.33 16.2643C7.17 16.5143 7.17 16.8443 7.33 17.1043C7.49 17.3543 7.78 17.5043 8.08 17.4643Z" fill="#030229"/>
</g>
</g>
</svg>
