<svg width="24" height="25" viewBox="0 0 24 25" fill="none" xmlns="http://www.w3.org/2000/svg">
<g id="Iconly/Bold/Calendar" opacity="0.4">
<g id="Calendar">
<path id="Calendar_2" fill-rule="evenodd" clip-rule="evenodd" d="M16.4109 3.15631L16.4119 3.90594C19.1665 4.12183 20.9862 5.99889 20.9891 8.87745L21 17.3032C21.0039 20.4417 19.0322 22.3727 15.8718 22.3777L8.15188 22.3877C5.01119 22.3917 3.01482 20.4147 3.01087 17.2672L3.00001 8.94042C2.99606 6.04287 4.75153 4.1708 7.50617 3.91793L7.50518 3.16831C7.5042 2.72853 7.83001 2.39769 8.26444 2.39769C8.69886 2.39669 9.02468 2.72653 9.02567 3.16631L9.02666 3.86596L14.8914 3.85796L14.8904 3.15831C14.8894 2.71853 15.2152 2.3887 15.6497 2.3877C16.0742 2.3867 16.4099 2.71653 16.4109 3.15631ZM4.52148 9.24926L19.4696 9.22927V8.87945C19.4272 6.73052 18.349 5.60309 16.4138 5.43517L16.4148 6.20479C16.4148 6.63457 16.0801 6.9754 15.6556 6.9754C15.2212 6.9764 14.8943 6.63657 14.8943 6.20678L14.8934 5.39719L9.02863 5.40519L9.02962 6.21378C9.02962 6.64457 8.70479 6.9844 8.27036 6.9844C7.83594 6.98539 7.50913 6.64656 7.50913 6.21578L7.50815 5.44617C5.58286 5.63907 4.51753 6.7705 4.52049 8.93842L4.52148 9.24926ZM15.2399 13.792V13.803C15.2498 14.2628 15.625 14.6116 16.0801 14.6016C16.5244 14.5906 16.8789 14.2098 16.869 13.75C16.8483 13.3102 16.4918 12.9514 16.0485 12.9524C15.5944 12.9624 15.2389 13.3322 15.2399 13.792ZM16.0554 18.2797C15.6013 18.2697 15.235 17.8909 15.234 17.4312C15.2241 16.9714 15.5884 16.5906 16.0426 16.5796H16.0525C16.5165 16.5796 16.8927 16.9584 16.8927 17.4282C16.8937 17.8979 16.5185 18.2787 16.0554 18.2797ZM11.1721 13.808C11.1919 14.2677 11.568 14.6266 12.0222 14.6066C12.4665 14.5856 12.821 14.2058 12.8012 13.746C12.7903 13.2962 12.425 12.9464 11.9807 12.9474C11.5266 12.9674 11.1711 13.3482 11.1721 13.808ZM12.0262 18.2348C11.572 18.2548 11.1968 17.8959 11.1761 17.4362C11.1761 16.9764 11.5305 16.5966 11.9847 16.5756C12.429 16.5746 12.7953 16.9244 12.8052 17.3732C12.8259 17.834 12.4705 18.2138 12.0262 18.2348ZM7.10433 13.843C7.12408 14.3027 7.50025 14.6625 7.95442 14.6416C8.39872 14.6216 8.75317 14.2408 8.73243 13.781C8.72256 13.3312 8.35725 12.9814 7.91196 12.9824C7.45779 13.0024 7.10334 13.3832 7.10433 13.843ZM7.95837 18.2398C7.5042 18.2607 7.12901 17.9009 7.10828 17.4412C7.10729 16.9814 7.46273 16.6006 7.9169 16.5806C8.3612 16.5796 8.7275 16.9294 8.73737 17.3792C8.7581 17.839 8.40365 18.2198 7.95837 18.2398Z" fill="#030229"/>
</g>
</g>
</svg>
