<svg width="15" height="18" viewBox="0 0 15 18" fill="none" xmlns="http://www.w3.org/2000/svg">
<path id="Delete" fill-rule="evenodd" clip-rule="evenodd" d="M14.4059 3.36947C14.7301 3.36947 15 3.63863 15 3.98113V4.29779C15 4.63195 14.7301 4.90945 14.4059 4.90945H0.594878C0.269883 4.90945 0 4.63195 0 4.29779V3.98113C0 3.63863 0.269883 3.36947 0.594878 3.36947H3.02464C3.51821 3.36947 3.94775 3.01864 4.05879 2.52364L4.18603 1.95531C4.38378 1.18115 5.03458 0.666992 5.77939 0.666992H9.22061C9.95732 0.666992 10.6154 1.18115 10.8059 1.91448L10.942 2.52281C11.0522 3.01864 11.4818 3.36947 11.9762 3.36947H14.4059ZM13.1715 14.9453C13.4252 12.5812 13.8693 6.96458 13.8693 6.90792C13.8855 6.73625 13.8296 6.57375 13.7186 6.44292C13.5994 6.32042 13.4487 6.24792 13.2826 6.24792H1.72377C1.55682 6.24792 1.39796 6.32042 1.28774 6.44292C1.1759 6.57375 1.12079 6.73625 1.12889 6.90792C1.13038 6.91833 1.14632 7.11617 1.17296 7.44693C1.29132 8.91629 1.62098 13.0088 1.83399 14.9453C1.98474 16.372 2.92082 17.2686 4.27672 17.3011C5.32302 17.3253 6.40094 17.3336 7.50316 17.3336C8.54136 17.3336 9.59577 17.3253 10.6745 17.3011C12.0774 17.277 13.0127 16.3962 13.1715 14.9453Z" fill="#0C2454"/>
</svg>
