<svg width="15" height="16" viewBox="0 0 15 16" fill="none" xmlns="http://www.w3.org/2000/svg">
<path id="Edit" fill-rule="evenodd" clip-rule="evenodd" d="M5.31376 14.6903L12.6359 5.22133C13.0338 4.71071 13.1753 4.12035 13.0427 3.51925C12.9277 2.97278 12.5917 2.4532 12.0876 2.05903L10.8584 1.08257C9.78839 0.231525 8.46192 0.321109 7.70141 1.29757L6.879 2.36451C6.77288 2.49799 6.79941 2.69508 6.93206 2.80258C6.93206 2.80258 9.01019 4.46883 9.05441 4.50467C9.1959 4.63904 9.30202 4.81821 9.32855 5.03321C9.37276 5.45425 9.08094 5.84842 8.64763 5.90217C8.44423 5.92905 8.24968 5.86634 8.10819 5.74988L5.92394 4.01196C5.81782 3.93223 5.65864 3.94925 5.57021 4.05675L0.379289 10.7755C0.0432495 11.1966 -0.0717113 11.743 0.0432495 12.2716L0.706485 15.1472C0.741858 15.2995 0.874505 15.407 1.03368 15.407L3.95192 15.3712C4.48251 15.3622 4.97772 15.1203 5.31376 14.6903ZM9.39948 13.7939H14.158C14.6222 13.7939 14.9998 14.1765 14.9998 14.6468C14.9998 15.118 14.6222 15.4996 14.158 15.4996H9.39948C8.93522 15.4996 8.55762 15.118 8.55762 14.6468C8.55762 14.1765 8.93522 13.7939 9.39948 13.7939Z" fill="#0C2454"/>
</svg>
