<svg width="10" height="10" viewBox="0 0 10 10" fill="none" xmlns="http://www.w3.org/2000/svg">
<path id="Vector" d="M9.44314 4.49999H5.49365V0.499968C5.49365 0.224029 5.27245 0 4.9999 0C4.72744 0 4.50623 0.224029 4.50623 0.499968V4.49999H0.556652C0.284192 4.49999 0.0629883 4.72402 0.0629883 4.99995C0.0629883 5.27599 0.284192 5.50001 0.556652 5.50001H4.50623V9.49994C4.50623 9.77597 4.72744 10 4.9999 10C5.27245 10 5.49365 9.77597 5.49365 9.49994V5.50001H9.44314C9.71569 5.50001 9.9369 5.27599 9.9369 4.99995C9.9369 4.72402 9.71569 4.49999 9.44314 4.49999Z" fill="white"/>
</svg>
