<svg width="6" height="6" viewBox="0 0 6 6" fill="none" xmlns="http://www.w3.org/2000/svg">
<g id="Arrow - Down 2" opacity="0.7">
<path id="Arrow - Down 2_2" d="M2.54363 5.31539C2.5223 5.28714 2.43112 5.18047 2.35611 5.0811C1.88439 4.49854 1.11227 2.97881 0.876589 2.18339C0.838719 2.06259 0.758565 1.75718 0.753418 1.59401C0.753418 1.43765 0.779891 1.2886 0.833571 1.14637C0.908577 0.96907 1.0266 0.826839 1.16595 0.748904C1.26265 0.698734 1.55201 0.620799 1.55715 0.620799C1.87372 0.542864 2.3881 0.5 2.95652 0.5C3.49811 0.5 3.99153 0.542864 4.31288 0.606673C4.31802 0.61398 4.67761 0.691914 4.80078 0.777155C5.0258 0.933512 5.16551 1.23892 5.16551 1.56576V1.59401C5.16 1.80687 5.02028 2.25451 5.01514 2.25451C4.77909 3.00706 4.04484 4.49172 3.55694 5.08841C3.55694 5.08841 3.43156 5.25645 3.35325 5.32952C3.24074 5.4435 3.10139 5.5 2.96204 5.5C2.80651 5.5 2.66165 5.43619 2.54363 5.31539Z" fill="#030229"/>
</g>
</svg>
