<svg width="24" height="25" viewBox="0 0 24 25" fill="none" xmlns="http://www.w3.org/2000/svg">
<g id="Iconly/Bold/Chart" opacity="0.4">
<g id="Chart">
<path id="Chart_2" fill-rule="evenodd" clip-rule="evenodd" d="M7.33049 2.92188H16.6695C20.0705 2.92188 21.9905 4.85087 22.0005 8.25187V17.5919C22.0005 20.9919 20.0705 22.9219 16.6695 22.9219H7.33049C3.92949 22.9219 2.00049 20.9919 2.00049 17.5919V8.25187C2.00049 4.85087 3.92949 2.92188 7.33049 2.92188ZM12.0495 18.7819C12.4805 18.7819 12.8395 18.4619 12.8795 18.0319V7.84188C12.9195 7.53188 12.7705 7.22088 12.5005 7.05188C12.2195 6.88188 11.8795 6.88188 11.6105 7.05188C11.3395 7.22088 11.1905 7.53188 11.2195 7.84188V18.0319C11.2705 18.4619 11.6295 18.7819 12.0495 18.7819ZM16.6505 18.7819C17.0705 18.7819 17.4295 18.4619 17.4805 18.0319V14.7519C17.5095 14.4309 17.3605 14.1319 17.0895 13.9619C16.8205 13.7919 16.4805 13.7919 16.2005 13.9619C15.9295 14.1319 15.7805 14.4309 15.8205 14.7519V18.0319C15.8605 18.4619 16.2195 18.7819 16.6505 18.7819ZM8.21949 18.0319C8.17949 18.4619 7.82049 18.7819 7.38949 18.7819C6.95949 18.7819 6.59949 18.4619 6.56049 18.0319V11.1219C6.53049 10.8109 6.67949 10.5019 6.95049 10.3319C7.21949 10.1619 7.56049 10.1619 7.83049 10.3319C8.09949 10.5019 8.25049 10.8109 8.21949 11.1219V18.0319Z" fill="#030229"/>
</g>
</g>
</svg>
